/* XPM */
static char *result[] = {
/* columns rows colors chars-per-pixel */
"64 64 9 1 ",
"  c none",
". c #1C1B23",
"X c #4C4847",
"o c #5D5C5D",
"O c black",
"+ c #9DD7F6",
"@ c #8ECBEB",
"# c #353341",
"$ c #31B0E4",
/* pixels */
"                                                                ",
"                                                                ",
"                                                                ",
"                                                                ",
"                           ..........                           ",
"                           ..........                           ",
"                       ....XXXXXXXXXX....                       ",
"                       ....XXXXXXXXXX....                       ",
"                     ....XXXXXooooXXXXX....                     ",
"                     ....XXXXXooooXXXXX....                     ",
"                     ....XXXXXooooXXXXX....                     ",
"                  OOO++@@..oooooooooo..@@++OOO                  ",
"                  OOO++@@..oooooooooo..@@++OOO                  ",
"                OO+++@@OOooooooooooooooOO@@+++OO                ",
"                OO+++@@OOooooooooooooooOO@@+++OO                ",
"              ++OOOOO##XXooooooooooooooXX##OOOOO++              ",
"              ++OOOOO##XXooooooooooooooXX##OOOOO++              ",
"              $$++...XXXXXXooooooooooXXXXXX...++$$              ",
"              $$++...XXXXXXooooooooooXXXXXX...++$$              ",
"              $$++...XXXXXXooooooooooXXXXXX...++$$              ",
"                $$...XXXXXXXXXXXXX$$$XXXXXX...$$                ",
"                $$...XXXXXXXXXXXXX$$$XXXXXX...$$                ",
"              OOOO$$$..XXXXXXX++$$$$$XXXX..$$$OOOO              ",
"              OOOO$$$..XXXXXXX++$$$$$XXXX..$$$OOOO              ",
"         ..OOOooOO   ..XXXX+++$$$$XXXXXXX..   OOooOOO..         ",
"         ..OOOooOO   ..XXXX+++$$$$XXXXXXX..   OOooOOO..         ",
"         ..OOOooOO   ..XXXX+++$$$$XXXXXXX..   OOooOOO..         ",
"       ..ooXXXoo..OOO  ..$$+++$$$$XXXXX..  OOO..ooXXXoo..       ",
"       ..ooXXXoo..OOO  ..$$+++$$$$XXXXX..  OOO..ooXXXoo..       ",
"     ..oooooooXXooOOO  ..$$+++++$$$$$##..  OOOooXXooooooo..     ",
"     ..oooooooXXooOOO  ..$$+++++$$$$$##..  OOOooXXooooooo..     ",
"  ...ooooooXXXXXXXXXX..##$$+++++++$$$####..XXXXXXXXXXoooooo...  ",
"  ...ooooooXXXXXXXXXX..##$$+++++++$$$####..XXXXXXXXXXoooooo...  ",
"  ...ooooooXXXXXXXXXXXX....$$$++++OOO##..XXXXXXXXXXXXoooooo...  ",
"  ...ooooooXXXXXXXXXXXX....$$$++++OOO##..XXXXXXXXXXXXoooooo...  ",
"  ...ooooooXXXXXXXXXXXX....$$$++++OOO##..XXXXXXXXXXXXoooooo...  ",
"OOoooooooXXXXXXXXXXXXXXXXXX...$$$$OOO..XXXXXXXXXXXXXXXXoooooooOO",
"OOoooooooXXXXXXXXXXXXXXXXXX...$$$$OOO..XXXXXXXXXXXXXXXXoooooooOO",
"OO...XX..XXXXXXX..XXXXXXXXXOOOooOOXXXXXXXXXXXX..XXXXXXX..XX...OO",
"OO...XX..XXXXXXX..XXXXXXXXXOOOooOOXXXXXXXXXXXX..XXXXXXX..XX...OO",
"OOOOO  ..XX...XX.....XXXXOOoooooOOXXXXXXXXX.....XX...XX..  OOOOO",
"OOOOO  ..XX...XX.....XXXXOOoooooOOXXXXXXXXX.....XX...XX..  OOOOO",
"OOOOO  ..XX...XX.....XXXXOOoooooOOXXXXXXXXX.....XX...XX..  OOOOO",
"         OO   ..  .......OOooooo..XXXXX.......  ..   OO         ",
"         OO   ..  .......OOooooo..XXXXX.......  ..   OO         ",
"                  ...XXOOoooooooXX...XXXXXXXXX..                ",
"                  ...XXOOoooooooXX...XXXXXXXXX..                ",
"                ..XXXXXOOXXoooooXX...##XXXX###..                ",
"                ..XXXXXOOXXoooooXX...##XXXX###..                ",
"                ..###XXOOXXXXXXXXXXXX#########..                ",
"                ..###XXOOXXXXXXXXXXXX#########..                ",
"                ..###XXOOXXXXXXXXXXXX#########..                ",
"                ..#####OOXXXXXXXXXXXX..####OOO                  ",
"                ..#####OOXXXXXXXXXXXX..####OOO                  ",
"                  OOO....OOXXXXXXX###..OOOO                     ",
"                  OOO....OOXXXXXXX###..OOOO                     ",
"                     OOOO  OOOOOOOOOO                           ",
"                     OOOO  OOOOOOOOOO                           ",
"                     OOOO  OOOOOOOOOO                           ",
"                                                                ",
"                                                                ",
"                                                                ",
"                                                                ",
"                                                                "
};
