/* XPM */
static char *result[] = {
/* columns rows colors chars-per-pixel */
"64 64 16 1 ",
"  c none",
". c #1C1B23",
"X c #8ECBEB",
"o c #4C4847",
"O c black",
"+ c #5D5C5D",
"@ c #31B0E4",
"# c #9DD7F6",
"$ c #353341",
"% c #A0A0A0",
"& c #D8D8F8",
"* c #440C09",
"= c #821F1A",
"- c #284858",
"; c #2F6091",
": c #6F95A4",
/* pixels */
"                                                                ",
"                                                                ",
"                                                                ",
"                                                                ",
"                                                                ",
"                                                                ",
"                            ......                              ",
"                            ......                              ",
"                            ..XXXX.....                         ",
"                            ..XXXX.....                         ",
"                              ....ooooo......                   ",
"                              ....ooooo......                   ",
"                              ....ooooo......                   ",
"                         OOOOO......ooooo++++.....              ",
"                         OOOOO......ooooo++++.....              ",
"                @@@@@##..OOO####XXoo.....+++++++++..            ",
"                @@@@@##..OOO####XXoo.....+++++++++..            ",
"                   ##..$$$$$....oo++++++++++++++++++.........   ",
"                   ##..$$$$$....oo++++++++++++++++++.........   ",
"                   ..$$$$OOOOO......$$$oo+++++++++++oo+++++++.. ",
"                   ..$$$$OOOOO......$$$oo+++++++++++oo+++++++.. ",
"                   ..$$$$OOOOO......$$$oo+++++++++++oo+++++++.. ",
"   @@              ..OOOO+++++OO..$$ooooooo%%ooo+++++++++++++.. ",
"   @@              ..OOOO+++++OO..$$ooooooo%%ooo+++++++++++++.. ",
"     @@@@@    ##   OO++++###....OOooooo++oo&&&&&**$$++++ooo++OO ",
"     @@@@@    ##   OO++++###....OOooooo++oo&&&&&**$$++++ooo++OO ",
"        @@@@  @@#####oo##@@@##@@@@oo@@@##++oo&&&==+++++++++ooOO ",
"        @@@@  @@#####oo##@@@##@@@@oo@@@##++oo&&&==+++++++++ooOO ",
"     @@@@@@@  OO@@@##@@@@@@@@@####@@#######@@+++++++++oo%%%OO   ",
"     @@@@@@@  OO@@@##@@@@@@@@@####@@#######@@+++++++++oo%%%OO   ",
"   @@###@@@@  OO+++@@##@@---@@@@#######@@####@@@++oo..OOOOO     ",
"   @@###@@@@  OO+++@@##@@---@@@@#######@@####@@@++oo..OOOOO     ",
"   @@###@@@@  OO+++@@##@@---@@@@#######@@####@@@++oo..OOOOO     ",
" @@##@@@@@@@OO++ooo;;;;-------@@@@##@@@oo@@@@...OOOO            ",
" @@##@@@@@@@OO++ooo;;;;-------@@@@##@@@oo@@@@...OOOO            ",
" @@##@@@@@@@OO++;;;--;;---------oooooooooXX::                   ",
" @@##@@@@@@@OO++;;;--;;---------oooooooooXX::                   ",
" @@#####@@  OO++OOO  ----   --oooo$$+++$$XX::                   ",
" @@#####@@  OO++OOO  ----   --oooo$$+++$$XX::                   ",
" @@@@###@@  OOOO       --...oooooo..ooo++..##:::                ",
" @@@@###@@  OOOO       --...oooooo..ooo++..##:::                ",
"   @@@@@....           ..$$$oooo++++...++..##:::                ",
"   @@@@@....           ..$$$oooo++++...++..##:::                ",
"   @@@@@....           ..$$$oooo++++...++..##:::                ",
"     ...oooo.........$$ooooooo+++++++++..$$##:::                ",
"     ...oooo.........$$ooooooo+++++++++..$$##:::                ",
"        ..ooooooooooooooo$$$oo+++++++++oo##XX:::                ",
"        ..ooooooooooooooo$$$oo+++++++++oo##XX:::                ",
"          ..$$ooooooooooo...oooo++++ooo$$XX::                   ",
"          ..$$ooooooooooo...oooo++++ooo$$XX::                   ",
"            .......$$ooooOOO$$oo$$$$.....::                     ",
"            .......$$ooooOOO$$oo$$$$.....::                     ",
"            .......$$ooooOOO$$oo$$$$.....::                     ",
"                   ......OOOoooo%%OO...                         ",
"                   ......OOOoooo%%OO...                         ",
"                            OOOOOO                              ",
"                            OOOOOO                              ",
"                                                                ",
"                                                                ",
"                                                                ",
"                                                                ",
"                                                                ",
"                                                                ",
"                                                                "
};
