/* XPM */
static char *result[] = {
/* columns rows colors chars-per-pixel */
"64 64 15 1 ",
"  c none",
". c #1C1B23",
"X c #9DD7F6",
"o c black",
"O c #31B0E4",
"+ c #8ECBEB",
"@ c #353341",
"# c #5D5C5D",
"$ c #4C4847",
"% c #2F6091",
"& c #D8D8F8",
"* c #284858",
"= c #821F1A",
"- c #440C09",
"; c #A0A0A0",
/* pixels */
"                                                                ",
"                                                                ",
"                                                                ",
"                                                                ",
"                                                                ",
"                                                                ",
"                       ..             ..                        ",
"                       ..             ..                        ",
"                     ..XX..         ..XX..                      ",
"                     ..XX..         ..XX..                      ",
"                     ..XX..         ..XX..                      ",
"                XX   ooXX..         ..XXoo   XX                 ",
"                XX   ooXX..         ..XXoo   XX                 ",
"              XXOO   oo++..@@@@@@@@@..++oo   OO                 ",
"              XXOO   oo++..@@@@@@@@@..++oo   OO                 ",
"              OOXX   oo####..#####..####oo   XXOO               ",
"              OOXX   oo####..#####..####oo   XXOO               ",
"              OOXXOOOoo$$##@@#####@@##$$ooOOOXXOO               ",
"              OOXXOOOoo$$##@@#####@@##$$ooOOOXXOO               ",
"              OOXXOOOoo$$##@@#####@@##$$ooOOOXXOO               ",
"              OOXXOOO..$$##$$#####$$##$$..OOOXXOO               ",
"              OOXXOOO..$$##$$#####$$##$$..OOOXXOO               ",
"          ....OOXXOOO..@@#############@@..OOOXXOO....           ",
"          ....OOXXOOO..@@#############@@..OOOXXOO....           ",
"        ..$$@@OOXXOOO@@#################..OOOXXOO@@$$...        ",
"        ..$$@@OOXXOOO@@#################..OOOXXOO@@$$...        ",
"        ..$$@@OOXXOOO@@#################..OOOXXOO@@$$...        ",
"     ...$$%%%%OOXXOOO$$&&#############&&@@XXXXXOO%%%%$$$..      ",
"     ...$$%%%%OOXXOOO$$&&#############&&@@XXXXXOO%%%%$$$..      ",
"   ..$$$%%%%%%**OOXXX##&&==#########==&&$$XXXOO**%%%%%%%$$..    ",
"   ..$$$%%%%%%**OOXXX##&&==#########==&&$$XXXOO**%%%%%%%$$..    ",
"   ..$$$%%%%****OOXXX####--$$#####$$--####XXXOO****%%%%%$$..    ",
"   ..$$$%%%%****OOXXX####--$$#####$$--####XXXOO****%%%%%$$..    ",
" ..$$@@@%%********OOO..#################..XXXOO****  %%%@@$$..  ",
" ..$$@@@%%********OOO..#################..XXXOO****  %%%@@$$..  ",
" ..$$@@@%%********OOO..#################..XXXOO****  %%%@@$$..  ",
" ..$$%%%  **  *******OO$$#############$$OO*********  ***  $$..  ",
" ..$$%%%  **  *******OO$$#############$$OO*********  ***  $$..  ",
" ....         **  ooo$$oo##$$#####$$##oo$$ooo**  **       ....  ",
" ....         **  ooo$$oo##$$#####$$##oo$$ooo**  **       ....  ",
"                  ...##$$..;;$$$$$;;..$$##...                   ",
"                  ...##$$..;;$$$$$;;..$$##...                   ",
"                  ...##$$..;;$$$$$;;..$$##...                   ",
"                oo###$$..++..ooooo..++..$$###oo                 ",
"                oo###$$..++..ooooo..++..$$###oo                 ",
"              oooo$$$..++XX+++++++++XX++..$$$oo                 ",
"              oooo$$$..++XX+++++++++XX++..$$$oo                 ",
"              oo$$...@@++XXXXXXXXXXXXX++@@...$$oo               ",
"              oo$$...@@++XXXXXXXXXXXXX++@@...$$oo               ",
"              oo$$...@@++XXXXXXXXXXXXX++@@...$$oo               ",
"              oo@@$$$$$++++XXXXXXXXX++++$$$$$$$oo               ",
"              oo@@$$$$$++++XXXXXXXXX++++$$$$$$$oo               ",
"                oo$$$$$oo+++++++++++++oo$$$$$@@oo               ",
"                oo$$$$$oo+++++++++++++oo$$$$$@@oo               ",
"                oo@@@@@@@oo+++++++++oo@@@@@@@oo                 ",
"                oo@@@@@@@oo+++++++++oo@@@@@@@oo                 ",
"                  ooooooo...........oo;;@@;;;oo                 ",
"                  ooooooo...........oo;;@@;;;oo                 ",
"                  ooooooo...........oo;;@@;;;oo                 ",
"                                      ooooooo                   ",
"                                      ooooooo                   ",
"                                                                ",
"                                                                ",
"                                                                "
};
