/* XPM */
static char *result[] = {
/* columns rows colors chars-per-pixel */
"64 64 16 1 ",
"  c none",
". c #1C1B23",
"X c #8ECBEB",
"o c #4C4847",
"O c #5D5C5D",
"+ c black",
"@ c #9DD7F6",
"# c #31B0E4",
"$ c #353341",
"% c #A0A0A0",
"& c #440C09",
"* c #D8D8F8",
"= c #821F1A",
"- c #284858",
"; c #2F6091",
": c #6F95A4",
/* pixels */
"                                                                ",
"                                                                ",
"                                                                ",
"                                                                ",
"                                                                ",
"                                                                ",
"                                                                ",
"                              ......                            ",
"                              ......                            ",
"                          ....XXXX..                            ",
"                          ....XXXX..                            ",
"                          ....XXXX..                            ",
"                   .......oooo....                              ",
"                   .......oooo....                              ",
"               ....OOOOooooo......++++                          ",
"               ....OOOOooooo......++++                          ",
"             ..OOOOOOOO.....ooXX@@@@++...@@####                 ",
"             ..OOOOOOOO.....ooXX@@@@++...@@####                 ",
"    .........OOOOOOOOOOOOOOOOOoo....$$$$$..@@                   ",
"    .........OOOOOOOOOOOOOOOOOoo....$$$$$..@@                   ",
"  ..OOOOOOOooOOOOOOOOOOooo$$......++++$$$$$..                   ",
"  ..OOOOOOOooOOOOOOOOOOooo$$......++++$$$$$..                   ",
"  ..OOOOOOOOOOOOOoo%%ooooooo$$..++OOOO+++++..             ##    ",
"  ..OOOOOOOOOOOOOoo%%ooooooo$$..++OOOO+++++..             ##    ",
"  ++OOooOOOOO$$&&****ooOOOoooo++....@@OOOOO++  @@    #####      ",
"  ++OOooOOOOO$$&&****ooOOOoooo++....@@OOOOO++  @@    #####      ",
"  ++OOooOOOOO$$&&****ooOOOoooo++....@@OOOOO++  @@    #####      ",
"  ++ooOOOOOOOOO==**ooOO@@@##oo####@@##@@@oo@@@@##  #####        ",
"  ++ooOOOOOOOOO==**ooOO@@@##oo####@@##@@@oo@@@@##  #####        ",
"    ++%%oooOOOOOOOO##@@@@@@@##@@@@#########@@##++  #######      ",
"    ++%%oooOOOOOOOO##@@@@@@@##@@@@#########@@##++  #######      ",
"      +++++..ooOO##@@@@###@@@@@@####--###@@##OO++  #####@@##    ",
"      +++++..ooOO##@@@@###@@@@@@####--###@@##OO++  #####@@##    ",
"             ++++..####ooo##@@####-------;;;;ooOO++#######@@##  ",
"             ++++..####ooo##@@####-------;;;;ooOO++#######@@##  ",
"                   ::XXooooooooo---------;;--;;OO++#######@@##  ",
"                   ::XXooooooooo---------;;--;;OO++#######@@##  ",
"                   ::XX$$$OO$$oooo--  -----  ++OO++  ###@@@@##  ",
"                   ::XX$$$OO$$oooo--  -----  ++OO++  ###@@@@##  ",
"                 ::@@..OOOoo..oooooo..---      ++++  ###@@####  ",
"                 ::@@..OOOoo..oooooo..---      ++++  ###@@####  ",
"                 ::@@..OOOoo..oooooo..---      ++++  ###@@####  ",
"                 ::@@..OOO..OOOOoooo$$...          .....####    ",
"                 ::@@..OOO..OOOOoooo$$...          .....####    ",
"                 ::@@$$...OOOOOOOOooooooo$$........ooooo..      ",
"                 ::@@$$...OOOOOOOOooooooo$$........ooooo..      ",
"                 ::XX@@oooOOOOOOOOoo$$ooooooooooooooo...        ",
"                 ::XX@@oooOOOOOOOOoo$$ooooooooooooooo...        ",
"                   ::XX$$$ooOOOOoooo..ooooooooooo$$..           ",
"                   ::XX$$$ooOOOOoooo..ooooooooooo$$..           ",
"                     ::.....$$$$oo$$++ooooo$$......             ",
"                     ::.....$$$$oo$$++ooooo$$......             ",
"                          ..++%%oooo++.......                   ",
"                          ..++%%oooo++.......                   ",
"                          ..++%%oooo++.......                   ",
"                              ++++++                            ",
"                              ++++++                            ",
"                                                                ",
"                                                                ",
"                                                                ",
"                                                                ",
"                                                                ",
"                                                                ",
"                                                                "
};
