/* XPM */
static char *result[] = {
/* columns rows colors chars-per-pixel */
"64 64 222 2 ",
"   c #010102",
".  c #02010B",
"X  c #040113",
"o  c #06021A",
"O  c #08021D",
"+  c #0A0324",
"@  c #0C032B",
"#  c #0E0433",
"$  c #0F0438",
"%  c #120434",
"&  c #12043A",
"*  c #140544",
"=  c #16064B",
"-  c #1B064B",
";  c #190545",
":  c #160652",
">  c #1B0754",
",  c #1A075B",
"<  c #1C085D",
"1  c #170758",
"2  c #240757",
"3  c #23075A",
"4  c #24085E",
"5  c #2F085E",
"6  c #20064C",
"7  c #1B0864",
"8  c #1D0969",
"9  c #1D0B75",
"0  c #230863",
"q  c #2B0863",
"w  c #24096B",
"e  c #2C096A",
"r  c #250A73",
"t  c #2B0A74",
"y  c #250C7D",
"u  c #2C0C7D",
"i  c #360B79",
"p  c #340A6D",
"a  c #420C7D",
"s  c #240C83",
"d  c #2B0D84",
"f  c #240E8B",
"g  c #2B0E8B",
"h  c #320E8C",
"j  c #380D85",
"k  c #270F94",
"l  c #350F93",
"z  c #3A0F92",
"x  c #26119C",
"c  c #2B119A",
"v  c #33119C",
"b  c #3B1099",
"n  c #2913A8",
"m  c #3412A3",
"M  c #3913A9",
"N  c #2916B8",
"B  c #3816B8",
"V  c #470E8B",
"C  c #460F93",
"Z  c #43119C",
"A  c #4A109A",
"S  c #56119D",
"D  c #500F93",
"F  c #4312A3",
"G  c #4914AC",
"H  c #4812A6",
"J  c #5813A7",
"K  c #4716B6",
"L  c #5317BB",
"P  c #5816B7",
"I  c #6416B7",
"U  c #6B15B3",
"Y  c #2B1AC7",
"T  c #3A19C3",
"R  c #381AC9",
"E  c #341DD3",
"W  c #3B1ED4",
"Q  c #2E22DB",
"!  c #3B23DC",
"~  c #3A2CDE",
"^  c #3425DB",
"/  c #3A2BE0",
"(  c #3E33E1",
")  c #4D19C5",
"_  c #471ACB",
"`  c #581AC6",
"'  c #461ED4",
"]  c #5B1ED5",
"[  c #6419C5",
"{  c #641ACC",
"}  c #6A1ACB",
"|  c #6D19C2",
" . c #731BCD",
".. c #7519C5",
"X. c #671ED6",
"o. c #771ED6",
"O. c #422BDE",
"+. c #4825DC",
"@. c #5725DC",
"#. c #4D35DE",
"$. c #6825DD",
"%. c #7925DC",
"&. c #7834DF",
"*. c #4A29E0",
"=. c #5A2BE1",
"-. c #4B3DE1",
";. c #4533E1",
":. c #533AE1",
">. c #5836E1",
",. c #692CE1",
"<. c #6839E1",
"1. c #7738E1",
"2. c #7B2AE0",
"3. c #4943E2",
"4. c #5847E2",
"5. c #5B56E3",
"6. c #6848E2",
"7. c #7644E3",
"8. c #794BE3",
"9. c #6B55E3",
"0. c #6558E4",
"q. c #7957E3",
"w. c #6B64E5",
"e. c #6966E5",
"r. c #7767E5",
"t. c #7572E6",
"y. c #7B76E6",
"u. c #7C7BE7",
"i. c #811BCD",
"p. c #871DD5",
"a. c #8426DC",
"s. c #9225DD",
"d. c #862BE0",
"f. c #8A37E1",
"g. c #9536E1",
"h. c #9129E0",
"j. c #8746E2",
"k. c #9748E2",
"l. c #8958E4",
"z. c #9956E3",
"x. c #A25AE4",
"c. c #A248E3",
"v. c #8562E4",
"b. c #8C6CE6",
"n. c #8767E5",
"m. c #9A63E5",
"M. c #9468E5",
"N. c #837BE7",
"B. c #8876E7",
"V. c #9879E7",
"C. c #A768E5",
"Z. c #A27AE7",
"A. c #A877E7",
"S. c #B076E7",
"D. c #B268E5",
"F. c #8A85E8",
"G. c #8987E9",
"H. c #9384E8",
"J. c #948CE9",
"K. c #9C8CE9",
"L. c #9987E8",
"P. c #9392EA",
"I. c #9B94EA",
"U. c #9D9BEB",
"Y. c #A384E8",
"T. c #A988E8",
"R. c #B785E8",
"E. c #AB9DEB",
"W. c none",
"Q. c none",
"!. c none",
"~. c none",
"^. c none",
"/. c none",
"(. c none",
"). c none",
"_. c none",
"`. c none",
"'. c none",
"]. c none",
"[. c none",
"{. c none",
"}. c none",
"|. c none",
" X c none",
".X c none",
"XX c none",
"oX c none",
"OX c none",
"+X c none",
"@X c none",
"#X c none",
"$X c none",
"%X c none",
"&X c none",
"*X c none",
"=X c none",
"-X c none",
";X c none",
":X c none",
">X c none",
",X c none",
"<X c none",
"1X c none",
"2X c none",
"3X c none",
"4X c none",
"5X c none",
"6X c none",
"7X c none",
"8X c none",
"9X c none",
"0X c none",
"qX c none",
"wX c none",
"eX c none",
"rX c none",
"tX c none",
"yX c none",
"uX c none",
"iX c none",
"pX c none",
/* pixels */
"pXpXpXpXpXpXpXpXpXpXpXpXpXpXpXpXpXpXpXpXpXpXpXpXpXpXpXpXpXpXpXpXpXpXpXpXpXpXpXpXpXpXpXpXpXpXpXpXpXpXpXpXpXpXpXpXpXpXpXpXpXpXpXpX",
"pXpXpXpXpXpXpXpXpXpXpXpXpXpXpXpXpXpXpXpXpXpXpXpXiXpXiXiXiXiXiXiXiXiXiXiXuXiXiXpXpXpXpXpXpXpXpXpXpXpXpXpXpXpXpXpXpXpXpXpXpXpXpXpX",
"pXpXpXpXpXpXpXpXpXpXpXpXpXpXpXpXpXpXpXiXpXpXiXuXuXtXtXuXuXuXuXuXuXtXuXtXtXtXtXuXiXiXiXpXpXpXpXpXpXpXpXpXpXpXpXpXpXpXpXpXpXpXpXpX",
"pXpXpXpXpXpXpXpXpXpXpXpXpXpXpXpXpXpXpXiXiXuXtXrXwXwX2X2X7X7XqXeXrXrXtXtXtXtXtXyXyXtXiXiXiXpXpXpXpXpXpXpXpXpXpXpXpXpXpXpXpXpXpXpX",
"pXpXpXpXpXpXpXpXpXpXpXpXpXpXpXpXiXiXiXuXrXwX0X3X<X-X=X#X$X=X;X>X,X1X6X9X8XqXtXyXyXyXyXtXtXiXiXpXpXpXpXpXpXpXpXpXpXpXpXpXpXpXpXpX",
"pXpXpXpXpXpXpXpXpXpXpXpXpXpXpXpXiXuXrXwX2X<X4X-X*X*X#X'.)././._.). X+X;X5X5X9XqXyXyXyXyXyXyXiXiXpXpXpXpXpXpXpXpXpXpXpXpXpXpXpXpX",
"pXpXpXpXpXpXpXpXpXpXpXpXpXpXiXuXrXrXwX2X2X3X<X4X-X*X#X'.'.).E.T.T.T.Q.XX&X%X%X5X9XyXyXyX8X8XyXtXiXiXpXpXpXpXpXpXpXpXpXpXpXpXpXpX",
"pXpXpXpXpXpXpXpXpXpXpXpXpXiXuXtXrXwXwXwXwX3X4X*X[.[.`.(.~./.W.T.Z.m.m.m.S.R.}.&X@X5X9X8X8X8X8X8XyXuXiXpXpXpXpXpXpXpXpXpXpXpXpXpX",
"pXpXpXpXpXpXpXpXpXpXpXpXiXuXrXrXwX2X3X-X[.[.{.!.^./.~.~.E.W.T.K.V.M.l.f.g.k.C.R.}.&X:X5X9X9X9X9X8XeXtXiXiXpXpXpXpXpXpXpXpXpXpXpX",
"pXpXpXpXpXpXpXpXpXpXpXuXuXrXwX3X4X*X`.{.{.!.!.!.!.!.~.!.~.E.W.T.T.V.m.k.d.a.g.g.D.R.}.&X5X6X9X6X6X9XqXtXuXpXpXpXpXpXpXpXpXpXpXpX",
"pXpXpXpXpXpXpXpXpXiXiXuXrX2X<X-X*X[.`.^.U.U.U.U.J.F.J.J.J.L.T.K.Y.Z.V.z.j.a.p.p.s.c.D.|.&X5X5X5X5X6X7X7XtXiXpXpXpXpXpXpXpXpXpXpX",
"pXpXpXpXpXpXpXpXpXuXrXwX2X3X3X4X*X[.`.!.P.u.t.t.w.0.6.0.q.q.q.n.M.V.V.z.g.a.o.p.s.s.c.c.S.}.%X:X,X6X6X6X7XtXiXpXpXpXpXpXpXpXpXpX",
"pXpXpXpXpXpXpXpXuXrXwX0X2X3X4X*X[.{.!.G.u.y.y.t.0.6.4.:.>.@.@.=.8.l.M.l.j.a. ...i.i.p.s.c.D.}.&X%X,X6X,X1X7XtXiXpXpXpXpXpXpXpXpX",
"pXpXpXpXpXpXpXuXrXwXwX0X3X-X*X`.{.I.u.y.N.F.F.y.9.0.9.9.9.>.=.=.,.7.j.1.f.%. .U U U i.p.s.c.C.Q..X%X,X,X,X1XeXtXuXpXpXpXpXpXpXpX",
"pXpXpXpXpXpXuXuXrXrX2X1X>X=X`.!.J.N.N.B.N.y.r.w.4.:.#.:.>.>.+.] @.<.&.%.&.%.o.| ..U U p.h.h.k.C.Q..X:X,X,X1X7XrXuXiXpXpXpXpXpXpX",
"pXpXpXpXpXiXuXuXrX2X1X<X-X`.!.I.H.B.y.0.4.:.*.~ ! R B T _ _ ' ) K ) @.X.X.%.o.} i.U U U d.d.f.z.C.Q.oX;X>X,X1X7XtXiXpXpXpXpXpXpX",
"pXpXpXpXpXiXiXrX0X1X2X>X'.~.E.L.B.N.9.4.4.>.*.! ! R n m v M B K K H L ` ` { X. . ...S | %.f.f.z.l.T.XXOX$X>X1X7XqXuXiXpXpXpXpXpX",
"pXpXpXpXiXuXuXwX2X1X=X#XoX/.K.L.H.B.r.>.+.R B T T m g s s s s b M G G K ` P J [ [ } J I %.2.%.j.l.m.Q._.oX;X>X7X7XuXuXiXpXpXpXpX",
"pXpXpXpXuXuXwX1X7X;X=X$X).Q.W.V.b.q.6.*.' T N B n c y y g d s h h l z Z Z V C A P [ [ S { X.$.l.M.l.V.Q.).=X=X2X2XrXuXuXpXpXpXpX",
"pXpXpXiXuXeX7X7X>X$X=X)./.W.b.q.8.6.<.>.' T B B m c g d s d d h d h i t t e j A J ` ` H P ,.$.l.n.l.n.W._.$X=X1X1XwXrXuXuXpXpXpX",
"pXpXpXiXtX7X7X,X;X$X)._.L.l.7.8.l.8.6.=._ M m v k s s y r 0 r t t t t , 4 q i Z Z L L Z G X.@.<.l.n.q.V.~.#X$X>X2X7XrXrXuXpXpXpX",
"pXpXiXuXrX7X1X>X%X X_.T.l.l.n.l.q.<.@._ M m v g u 8 < , 8 : : 7 0 < 3 3 e 0 w j z z Z z Z ) ) $.8.n.q.b.~.).#X-X1X7XrXrXuXpXpXpX",
"pXpXpXuX8X1X,X>X+X_.Q.V.l.M.M.1.@.` H b l v v g u 8 : * * * = = > ; * , 0 0 - q j u j u b M K +.>.r.6.r.E.~.'.#X3X2XeXwXrXiXpXpX",
"pXpXiXrX7X>X,X:X%XXXT.l.M.M.7.$.` G z b h h u 0 < = * * * * $ & = & & ; > > = > t u u t v m M _ >.r.6.n.W.W./.].<X1X0XwXrXiXpXpX",
"pXpXuXqX6X,X>X:XOXQ.m.l.M.8.$.` L F F l t < > > > = = * & $ # @ # @ @ @ * * ; ; 9 r r < g c v W >.9.0.r.J.J.!.{.-X<X2X0XrXuXpXpX",
"pXpXtXwX1X1X1X;X XZ.j.l.j.%.X.X.L Z z e 3 w w > ; & % * $ @ + o + + + + % & # & 1 9 r < s c c R :.4.4.r.F.F.U.{.*X>X2X2XrXuXpXpX",
"pXiXtX7X1X6X>X+XQ.M.j.f.$.$.$.L A i t t t t w , * & @ + + + o X o o o + @ @ + * 1 8 9 7 y k c E -.:.3.r.u.N.P.^.[.-X2X1XrXuXiXpX",
"pXiXrX7X1X1X>XoXQ.l.j.&.$.X.` H Z z j u t t < , * % @ o o o X . o X X o + O + & 1 1 1 1 f x n R ;.;.-.0.t.u.G.!.[.4X3X3XrXuXiXpX",
"pXiXrX2X1X,X;X XZ.8.&.1.$.` G H K G j d u w * & @ + o X X X . . X . X X o X + $ * : : 7 f x x N E Q / 3.5.u.u.!.[.-X4X4XrXuXiXpX",
"pXiXeX2X1X1X;X_.M.1.$.$.{ K G ` ) K l d w > % + + o X o . . . . . . . X X X + # $ * 1 8 f k x N Y Y ^ 3.5.u.u.U.`.*X[.4XwXrXuXpX",
"pXiXwX2X1X1X=X_.M.<.$.] L F ) ) K M l u - * = * @ + o X X .         . . X X o + * * * 9 f f N N N Y ~ 3.e.u.u.U.`.[.[.4XwXrXuXpX",
"pXuXrX2X2X1X=XE.v.$.] ) F K _ ) M M l r > < = & @ + X X . .         . . X o + $ * * : 7 9 f n n N Y Q 3.u.u.u.P.^.{.`.3XrXrXuXpX",
"pXuXwX2X2X1X=XW.q.] _ K B _ _ K v v s 8 7 7 : $ + o o . . .         . . . o + $ & * * 1 9 k n n N Q Q 5.u.G.t.P.U.{.[.3XwXwXuXiX",
"pXuXwX2X2X3X$XW.9.@._ B B _ ' T m f 9 1 8 1 : # + + X o . .         . . X o + # * * = 8 y f f x Y Q ~ e.u.u.t.P.!.{.4XwXwXwXiXiX",
"pXuXwXwX0X3X#XU.6.*._ B B _ ' R B n s 7 1 1 * # $ + o o X . .   . . . . X o + $ & * 1 r y f 9 x N Y ( 5.t.e.u.U.^.`.3XwX3XrXiXiX",
"pXuXrXwX0X1X[.I.9.*.E T T W O.W T N x 9 9 8 : : * # O o o . X . . . X o O + @ % * > > w f f y c N Q 5.5.5.e.P.!.!.[.3X3X3XrXiXpX",
"pXiXrXwXwX3X[.U.0.! E W ! O.~ E R N n f f 9 1 : * # @ + O o o . X X X o + @ & - : 4 r u d d s m R -.5.4.3.e.P.!.^.*X4X4X3XrXiXpX",
"pXiXrXrXwX0X[.U.0./ E W ;.-.;.! E N n k f 9 8 : * $ # @ @ O X X X O O O @ @ & > < w u g y y c R +.5.0.-.5.u.U.!.{.*X4X-X0XrXiXpX",
"pXiXuXrXwX0X[.!.e.( / ;.5.4.-.;.^ n n k f f 9 : : $ * $ % + O o X O + @ + % & ; 0 t d h h l B +.#.4.4.:.t.P.!.^.[.-X-X4XwXuXiXpX",
"pXiXuXwXwX0X*X^.e.( ( 0.0.e.5.3./ N N n f f 9 : : * * * ; @ % % O @ % & ; ; - 2 e i h h M K _ +.+.>.O.r.J.U.!.!.[.[.*X3XwXuXiXpX",
"pXpXuXrXrXwX4X{.u.3.3.e.t.t.5.( / Y Y n 9 s f 8 w * * ; ; & & & % + % 6 - 3 4 4 0 u j H M K ) +.*.+.4.N.I.~.U.^.[.[.*X3XrXuXpXpX",
"pXpXiXrXrXwX4X[.G.5.5.t.u.u.5.~ ^ Q E n 9 s g y t > > : - ; - - 6 ; % 6 2 5 q q q j Z G K ) @.@.=.>.b.J.U.U.U.`.{.`.-X2XrXiXpXpX",
"pXpXpXrXrXrX2X*XP.e.e.u.G.u.0.~ ^ / *.T f s d d d w w w 3 2 2 4 q 2 5 6 6 5 e q p C G ) ] ,.<.6.8.n.V.P.J.J.!.^.{.[.3XrXuXiXpXpX",
"pXpXpXuXuXrXwX*XU.u.t.u.G.J.y.;.! 4.-.! m g r h l u i j i 2 2 e p p a p i i j j i H ` ` ] <.7.v.B.B.H.L.H.L.W.W.`.3XwXuXiXpXpXpX",
"pXpXpXiXuXrXrX<X`.G.G.G.J.P.F.0.;.4.9.+.B B b b F M j z C i q 5 p i i a V C A A A H ` X.X.1.7.l.b.V.V.B.B.B.I.(.-XwXtXiXpXpXpXpX",
"pXpXpXiXuXuXuX2X*XU.P.U.P.W.I.N.9.:.q.4.' ) ) K G L A C H A i p 5 p a V A J J J J [ X.,.$.1.8.8.n.b.v.q.B.V.~.*X2XrXuXiXpXpXpXpX",
"pXpXpXpXiXiXuXwX<X(.!.!.P.~.!.J.r.>.8.q.=.@.$.L L P P G S D D D V a a S P } [ [ { } { X.] X.$.1.7.1.<.q.b.W.[.3XrXuXiXpXpXpXpXpX",
"pXpXpXpXiXiXiXrX2X*X^.`.^.W.~.W.L.6.9.q.v.<.X.] P P [ { I J S D J S D D J I } } } X.} P P { X.X.$.,.7.b.E.oX3XwXuXuXiXpXpXpXpXpX",
"pXpXpXpXpXpXuXuXwX-X`.`.`.~.~.E.K.r.q.b.V.l.1.&.` } o.2.%.} J J J J J J J J J J I I P P P { { $.$.1.n.W.oX>X2XrXuXuXiXpXpXpXpXpX",
"pXpXpXpXpXpXpXuXrX2X#X[.#X'.(./.~.T.b.V.L.V.l.1.1.%.%.f.j.d.%.U U .. .o.| ..U I J J I I }  .$.2.j.V.Q.oX>X7XrXuXuXiXpXpXpXpXpXpX",
"pXpXpXpXpXpXpXiXuXwX4X#X*X=X'./././.Y.b.V.T.Z.l.f.j.f.f.k.z.k.d.d.a.o.p.p.%.a.%. . . . .o.2.j.m.Y._.oX>X9XrXrXtXuXpXpXpXpXpXpXpX",
"pXpXpXpXpXpXpXpXuXrX2X<X=X>X=X'././.E.Z.V.Z.Z.C.m.m.C.m.z.k.m.x.k.k.k.h.a.d.f.d.d.a.%.%.f.z.A.Q. X$X,X8XrXrXtXuXpXpXpXpXpXpXpXpX",
"pXpXpXpXpXpXpXpXpXuXrX0X<X>X<X>X#X/._.E.Q.T.Z.A.Z.A.A.A.S.z.k.x.C.C.C.x.k.g.g.g.h.d.k.z.A.Q..X$X:X9XeXeXrXrXuXpXpXpXpXpXpXpXpXpX",
"pXpXpXpXpXpXpXpXpXiXuXrX0X<X1X2X1X#X).)._._.Q.T.T.A.S.R.R.R.C.k.x.x.x.x.z.k.z.k.z.C.S.Q.XX$X,X6X7X0XeXtXtXuXiXpXpXpXpXpXpXpXpXpX",
"pXpXpXpXpXpXpXpXpXpXiXiXrXwX1X2XwX1XoX'.oX+XoX XQ.Q.Q.Q.Q.}.}.R.S.S.S.S.D.S.S.R.Q.}..X:X,X6X9X8XeXeXeXtXiXpXpXpXpXpXpXpXpXpXpXpX",
"pXpXpXpXpXpXpXpXpXpXpXiXiXuXwX2X7XwX1X$X+X=X;X+X@X.XXXXX.X.XXXXX}.}.Q.}.XX}..X.X&X%X:X5X6X9X7X8XqXtXtXiXiXpXpXpXpXpXpXpXpXpXpXpX",
"pXpXpXpXpXpXpXpXpXpXpXpXpXiXuXrXwXwXwX1X=X>X1X,X:X;X;X+X.X%X%X%X@X.X.X&X%X%X:X:X:X5X5X6X9X9X8XqXtXtXuXpXpXpXpXpXpXpXpXpXpXpXpXpX",
"pXpXpXpXpXpXpXpXpXpXpXpXpXpXpXuXtXrXrXrX7X1X1X7X1X,X,X6X,X:X;X:X%X:X%X:X,X,X5X9X9X6X6X6X8XqXyXtXuXiXpXpXpXpXpXpXpXpXpXpXpXpXpXpX",
"pXpXpXpXpXpXpXpXpXpXpXpXpXpXpXpXiXuXrXuXrXeX2X7X7XwX7X1X7X6X6X,X:X:X,X,X5X5X5X5X6X6X9X9XqXtXiXiXpXpXpXpXpXpXpXpXpXpXpXpXpXpXpXpX",
"pXpXpXpXpXpXpXpXpXpXpXpXpXpXpXpXpXpXiXuXuXuXrX7X7XqXwXqX7X6X9X7X8X6X6X6X5X5X5X6X9X8XyXtXiXiXiXpXpXpXpXpXpXpXpXpXpXpXpXpXpXpXpXpX",
"pXpXpXpXpXpXpXpXpXpXpXpXpXpXpXpXpXpXpXiXpXuXuXuXrXeXeXeXrXeXeX8X9X9X9X8X8X8X8XyXtXtXuXuXiXpXpXpXpXpXpXpXpXpXpXpXpXpXpXpXpXpXpXpX",
"pXpXpXpXpXpXpXpXpXpXpXpXpXpXpXpXpXpXpXpXpXpXiXiXiXuXtXrXrXtXuXtXuXtXtXtXtXiXiXiXiXpXpXpXpXpXpXpXpXpXpXpXpXpXpXpXpXpXpXpXpXpXpXpX",
"pXpXpXpXpXpXpXpXpXpXpXpXpXpXpXpXpXpXpXpXpXpXpXpXpXiXiXiXuXuXiXiXuXiXiXiXiXiXpXpXpXpXpXpXpXpXpXpXpXpXpXpXpXpXpXpXpXpXpXpXpXpXpXpX",
"pXpXpXpXpXpXpXpXpXpXpXpXpXpXpXpXpXpXpXpXpXpXpXpXpXpXpXpXpXpXpXiXpXpXpXpXpXpXpXpXpXpXpXpXpXpXpXpXpXpXpXpXpXpXpXpXpXpXpXpXpXpXpXpX"
};
