/* XPM */
static char *result[] = {
/* columns rows colors chars-per-pixel */
"64 64 45 1 ",
"  c none",
". c white",
"X c #979797",
"o c #CECECE",
"O c gray30",
"+ c black",
"@ c #868686",
"# c #B20000",
"$ c red",
"% c #790000",
"& c #C6C6C6",
"* c #390000",
"= c #C32828",
"- c #FF3939",
"; c #970000",
": c #FFB2B2",
"> c #FF7B7B",
", c gray93",
"< c gray86",
"1 c #240000",
"2 c #FFDCDC",
"3 c #FFF4F4",
"4 c #FF6A6A",
"5 c #EFEFEF",
"6 c #808080",
"7 c #FEB1B1",
"8 c #FDFDFD",
"9 c #898989",
"0 c #060000",
"q c #510000",
"w c gray98",
"e c #CF0000",
"r c #4E0000",
"t c #CE0000",
"y c #939393",
"u c #272727",
"i c #D8D8D8",
"p c #282828",
"a c #9B9B9B",
"s c gray23",
"d c gray2",
"f c gray77",
"g c #C8C8C8",
"h c gray7",
"j c #FBFBFB",
/* pixels */
"                                                                ",
"                                                                ",
"                                                                ",
"                                                                ",
"                                                                ",
"                                                                ",
"                                                                ",
"                                                                ",
"                                                                ",
"                                                                ",
"                                                                ",
"                                                                ",
"                                                                ",
"                                                                ",
"                                                                ",
"                                                                ",
"                                                                ",
"                           .XXXXXXXXXo                          ",
"                           O+++++++++@                          ",
"                           O+++++++++@                          ",
"                       ++++#$$$$$$$$$%++++                      ",
"                       ++++#$$$$$$$$$%++++                      ",
"                    &&&****=--$$$$$$$;****&&&                   ",
"                    +++$$$$:  $$$$$$$$$$$$+++                   ",
"                    +++$$$$:  $$$$$$$$$$$$+++                   ",
"                    +++$$       >$$$$$$$$$+++                   ",
"                    +++$$       >$$$$$$$$$+++                   ",
"                 ,<<111$$223  224$$$$$$$$$111<<5                ",
"                 6++$$$$$$$788$$$$$$$$$$$$$$$++9                ",
"                 6++$$$$$$$788$$$$$$$$$$$$$$$++9                ",
"                 6++$$$$$$$$$$+++++$$$$$$$$$$++9                ",
"                 6++$$$$$$$$$$+++++$$$$$$$$$$++9                ",
"                 6++000$$$$q00wwwww00e$$$$000++9                ",
"                 6+++++$$$$r++     ++t$$$$+++++9                ",
"                 6+++++$$$$r++     ++t$$$$+++++9                ",
"                 6++   +++++++     +++++++   ++9                ",
"                 6++   +++++++     +++++++   ++9                ",
"                 yuuiiipppppppiiiiipppppppiiiuua                ",
"                    +++.......+++++.......+++                   ",
"                    +++.......+++++.......+++                   ",
"                    +++...................+++                   ",
"                    +++...................+++                   ",
"                       ++++s.........d++++                      ",
"                       ++++s.........d++++                      ",
"                       ++++s.........d++++                      ",
"                           f+++++++++w                          ",
"                           f+++++++++w                          ",
"                           ghhhhhhhhhj                          ",
"                                                                ",
"                                                                ",
"                                                                ",
"                                                                ",
"                                                                ",
"                                                                ",
"                                                                ",
"                                                                ",
"                                                                ",
"                                                                ",
"                                                                ",
"                                                                ",
"                                                                ",
"                                                                ",
"                                                                ",
"                                                                "
};
