/* XPM */
static char *result[] = {
/* columns rows colors chars-per-pixel */
"64 64 213 2 ",
"   c #2D2526",
".  c #352526",
"X  c #352A25",
"o  c #342B2A",
"O  c #392D2D",
"+  c #3A2925",
"@  c #3D3128",
"#  c #392F30",
"$  c #3E3233",
"%  c #4E2525",
"&  c #4C2C2C",
"*  c #43292A",
"=  c #5A2B2B",
"-  c #44362A",
";  c #4B3B2A",
":  c #483A25",
">  c #502F30",
",  c #413434",
"<  c #4A3333",
"1  c #443738",
"2  c #46393A",
"3  c #493B3C",
"4  c #5B3325",
"5  c #622B2B",
"6  c #6C2C2D",
"7  c #732C2D",
"8  c #7B2B2B",
"9  c #762727",
"0  c #793428",
"q  c #793B29",
"w  c #623927",
"e  c #534229",
"r  c #5E4B2B",
"t  c #574428",
"y  c #7B4129",
"u  c #6B542D",
"i  c #65502B",
"p  c #725A2E",
"a  c #73522D",
"s  c #765D30",
"d  c #61472C",
"f  c #7E632F",
"g  c #7A6130",
"h  c #842C2B",
"j  c #8C2D2D",
"k  c #912E2E",
"l  c #823C2B",
"z  c #8A382D",
"x  c #93372F",
"c  c #962E31",
"v  c #953130",
"b  c #9C3232",
"n  c #933930",
"m  c #9A3B33",
"M  c #853232",
"N  c #A33334",
"B  c #AC3536",
"V  c #AB3A36",
"C  c #AE3738",
"Z  c #AE3A38",
"A  c #A33B35",
"S  c #B43639",
"D  c #B9373A",
"F  c #B33939",
"G  c #BD3A3B",
"H  c #B03537",
"J  c #CD3D30",
"K  c #C33C3E",
"L  c #C83E3F",
"P  c #83432C",
"I  c #89442D",
"U  c #8B4C2E",
"Y  c #84482C",
"T  c #91422F",
"R  c #875B2F",
"E  c #984432",
"W  c #9D4E34",
"Q  c #934931",
"!  c #8E5230",
"~  c #8F5F30",
"^  c #935832",
"/  c #985733",
"(  c #884735",
")  c #A24234",
"_  c #AD4836",
"`  c #A15936",
"'  c #A75337",
"]  c #B44239",
"[  c #8B612F",
"{  c #8E6431",
"}  c #8A6C32",
"|  c #846731",
" . c #916332",
".. c #946C33",
"X. c #9E6636",
"o. c #947435",
"O. c #9A7435",
"+. c #9D7B37",
"@. c #9E7C3B",
"#. c #A56538",
"$. c #A07D37",
"%. c #AC723B",
"&. c #A17E39",
"*. c #B2753D",
"=. c #B47B3E",
"-. c #B97A3F",
";. c #B36E3C",
":. c #CF4232",
">. c #C4443C",
",. c #C9443E",
"<. c #C3493C",
"1. c #CC4C3E",
"2. c #D04334",
"3. c #D44D3E",
"4. c #D44E37",
"5. c #CF513E",
"6. c #D3533F",
"7. c #D8543F",
"8. c #D5593E",
"9. c #DA5C3E",
"0. c #D35035",
"q. c #D9633B",
"w. c #DD6B3E",
"e. c #CA3F40",
"r. c #916363",
"t. c #CD4141",
"y. c #D34343",
"u. c #D34C41",
"i. c #D94545",
"p. c #C75540",
"a. c #CB5B42",
"s. c #D65340",
"d. c #D95640",
"f. c #D65940",
"g. c #DB5C41",
"h. c #CD6143",
"j. c #DD6344",
"k. c #DE6A46",
"l. c #DF6E48",
"z. c #D06443",
"x. c #DF7D46",
"c. c #D87947",
"v. c #D26F4B",
"b. c #E16442",
"n. c #E16D46",
"m. c #E06F48",
"M. c #E57446",
"N. c #E87645",
"B. c #E47C46",
"V. c #E97C47",
"C. c #E37449",
"Z. c #E67B4A",
"A. c #E97D48",
"S. c #E27753",
"D. c #A58139",
"F. c #AA853B",
"G. c #AF893C",
"H. c #B48C3E",
"J. c #B9803F",
"K. c #B8903F",
"L. c #A18244",
"P. c #BD8541",
"I. c #BA8F40",
"U. c #BC9441",
"Y. c #C58C43",
"T. c #DC8249",
"R. c #D18947",
"E. c #CD9646",
"W. c #C49A44",
"Q. c #CA9E46",
"!. c #D09847",
"~. c #D29A48",
"^. c #EC8247",
"/. c #E6824C",
"(. c #EB8449",
"). c #EE8B4A",
"_. c #E68948",
"`. c #F08E49",
"'. c #EC934C",
"]. c #EB9C4E",
"[. c #F2944B",
"{. c #F59C4C",
"}. c #EA955A",
"|. c #CDA147",
" X c #D4A649",
".X c #D7A84A",
"XX c #DCAC4C",
"oX c #DAA24B",
"OX c #D7AC55",
"+X c #EEA24D",
"@X c #E4AD4E",
"#X c #E3A74E",
"$X c #F7A04C",
"%X c #F1AB4F",
"&X c #E2B24F",
"*X c #EFA450",
"=X c #EFAE52",
"-X c #F0A650",
";X c #F1AD52",
":X c #F0A85A",
">X c #E7B550",
",X c #EAB551",
"<X c #EDBA52",
"1X c #F3B353",
"2X c #F4BD54",
"3X c #F8BF55",
"4X c #E48164",
"5X c #F6C155",
"6X c #D3865F",
"7X c #F9C55A",
"8X c #F4C25B",
"9X c #FAC968",
"0X c #E69080",
/* pixels */
"6X6X6X6X6X6X6X6X6X6X6X6X6X6X6X6X6X6X6X6X6X6X6X6X6X6X2X].C.].1X/.k.k.].=X).T.%X6X7X6X6X6X6X6X6X6X6X6X6X6X6X6X6X6X6X6X6X6X6X6X6X6X",
"6X6X6X6X6X6X6X6X6X6X6X6X6X6X6X6X6X6X6X6X3X1X;X_.Z.'.Z.V._.Z.C.(.).).B.B.^.(.B._._.l.*X2X1X3X6X6X6X6X6X6X6X6X6X6X6X6X6X6X6X6X6X6X",
"6X6X6X6X6X6X6X6X6X6X6X6X6X6X6X6X7X6X3X3X'.m./.Z.k.M.(.).{.).).$X$X$X{.).'.{.).Z.C.j.'.Z.C.%X6X6X6X6X6X6X6X6X6X6X6X6X6X6X6X6X6X6X",
"6X6X6X6X6X6X6X6X6X6X6X6X6X6X6X6X;X-X:X}.b.C.Z.).{.{.$X{.{.$X$X$X$X$X$X$X{.[.{.$X{.{.B.C.n.n.].;X-X1X6X6X6X6X6X6X6X6X6X6X6X6X6X6X",
"6X6X6X6X6X6X6X6X6X6X6X6X1X*X:X:XS.S.0XS.).).[.{.'.{.$X$X$X$X$X$X$X$X$X$X{.$X$X$X{.[.{.'.)./.Z.Z.j.(.1X+X*X5X6X6X6X6X6X6X6X6X6X6X",
"6X6X6X6X6X6X6X6X6X6X6X2X'.d.C.4XA.`.m.).{.{.{.$X$X$X$X$X$X$X$X$X$X$X$X$X$X$X$X$X$X$X{.{.{.{.V.N.).Z.Z.k.k.1X6X6X6X6X6X6X6X6X6X6X",
"6X6X6X6X9X9X7X6X6X6X5X+Xk.g.C.C.A.`.V.).{.{.$X$X$X$X$X$X$X$X$X$X$X$X$X$X$X$X$X$X$X$X$X$X{.{.^.(.(.V.n.m.g._.1X6X6X6X6X6X6X6X6X6X",
"6X6X6X7X9X6X6X6X6X6X%X0.:.2.j.M.V.N.N.N.(.}.$X$X$X$X$X$X$X$X$X$X$X$X$X$X$X$X$X$X$X$X$X{.).V.N.N.Z.Z.n.7.:.:.B.1X6X6X6X6X6X6X6X6X",
"6X6X6X6X6X6X6X6X3X+Xq.q.9.d.d.j.m.M.).[.[.$X$X$X$X$X$X$X$X$X$X$X$X$X$X$X$X$X$X$X$X$X$X$X{.[.`.A.C.n.j.f.7.q.8./.1X6X6X6X6X6X6X6X",
"6X6X6X6X6X6X6X6X%Xq.J J 4.j.Z.C.M.A.A.[.{.$X$X$X$X$X$X$X$X$X$X$X$X$X$X$X$X$X$X$X$X$X$X$X{.{.`.C.C.n.Z.C.9.:.J :._.2X6X6X6X6X6X6X",
"6X6X6X6X6X6X6X2Xw.k.j.6.n.Z./././.A.N.V.[.[.{.$X$X$X$X$X$X$X$X$X$X$X$X$X$X$X$X$X$X$X{.{.[.).V.N.Z./././.C.g.s.l.0.[.5X6X6X6X6X6X",
"6X6X6X6X6X6X5X1XB.q.k.6.k.Z.Z.Z.A.A.(.{.{.[.{.$X$X$X$X$X$X$X$X$X$X$X$X$X$X$X$X$X$X$X{.{.{.{.`.V./.Z.Z.Z.C.j.g.j.q.].2X5X6X6X6X6X",
"6X6X6X6X6X3X].x.x.6.g.g.s.j.n.C.V.Z.^.[.[.{.$X$X$X$X$X$X$X$X$X$X$X$X$X$X$X$X$X$X$X$X$X{.{.{.[.V.A.Z.n.n.g.s.k.s.k.x.T.,X5X6X6X6X",
"6X6X6X6X,X].a.,.3.k.S.C.s.g.m.Z.S.V.N.V.[.[.{.$X$X$X$X$X$X$X$X$X$X$X$X$X$X$X$X$X$X$X{.{.`.).N.N.C.A.C.n.d.f.Z.C.4.1.>.c.=X1X6X6X",
"6X6X6X3Xh.h.u.u.6.n.C.d.g.Z.Z.C.V.(.(.N.V.(.{.$X{.{.{.$X$X$X$X$X$X$X$X$X$X$X{.{.{.{.{.[./.N.C.`.A.N.Z.Z.l.s.j.Z.d.d.u.s.q.c.6X6X",
"6X6X6X2XK s.d.b.9.d.d.u.g.Z.m.m.N.`.`.A.N.`.{.[.[.[.[.$X{.$X$X$X{.{.$X$X$X{.{.[.[.`.{.{.(.N.^.[.(.n.n.C.C.s.s.d.d.g.g.s.p.5.5X6X",
"6X6X5X+XK u.g.b.b.b.d.3.f.n.j.Z.Z.Z.C.N.V.[.[.V.).[.{.[.[.$X{.{.[.[.{.$X{.[.[.{.`.V.`.{.`.N.N.C.Z.Z.Z.g.k.s.u.g.b.b.j.f.1.p.;X6X",
"6X6X<X] 1.1.s.6.g.b.b.s.g.f.j.Z.C.C.C.C.V.(.V.V.`.{.`.V.`.$X[.`.[.[.[.{.[.^.(.[.{.^.C.(.^.M.C.C.n.Z.S.d.g.f.f.b.j.d.u.s.1.,.c.6X",
"6X6X1X5.8.8.1.1.d.b.g.k.S.k.s.j.g.k.C.C.n.A.V.A.A.(.A.A.(.`.`.V.[.`.A.`.`.(.A.A.(.V.Z.Z.C.M.Z.m.j.j.n.f.m.C.j.b.g.s.>.u.j.5.T.6X",
"6X6X#Xv._ >.>.9.b.j.d.Z.C.g.u.s.j.Z.C.C.A./.Z.Z.N.n.V.`.V.V.V.V.).^.N.N.V.`.(.N.N.N.Z.(.Z.C.C.Z.C.g.u.s.j.Z.j.d.b.b.u.>.] _ R.<X",
"6X6X%./ b D 1.g.9.6.s.b.b.g.d.d.j.C.l.C./.Z.C.Z.Z.Z.A.).C.M././.V.V.Z.C.N.A.^.A.Z.Z.Z.Z.Z./.l.n.C.g.d.d.b.j.d.d.f.d.7.>.F m / Y.",
"6X6XX.k G ,.d.9.1.6.j.9.b.b.b.d.g.j.j.S.Z.C.C.Z.Z.Z.Z.A.C.Z./././.Z.A.A.C.A.A.Z.Z.Z.Z.n.Z./.l.f.j.f.d.b.b.d.g.b.1.s.9.6.>.H z J.",
"6X3X-.m ,.g.j.1.1.j.b.d.d.b.d.d.l.l.j.l.Z.l.m.C.Z.Z.Z.Z.(.Z.Z./.Z.Z.C.A.Z./.Z.Z.Z.m.Z.n.C.S.b.j.S.k.u.g.b.d.b.b.s.>.8.j.9.G W !.",
"6XE.' >.t.6.1.>.d.b.b.7.b.d.d.j.S.l.s.f.j.k.C.b.C.Z.Z.Z.Z.Z.Z./.Z.Z.Z.C.C./.S.Z.Z.k.C.C.g.j.s.d.C.C.f.d.b.d.g.b.j.5.>.6.3.L ] #.",
"6XP F t.B D G 5.b.j.g.9.7.d.d.j.C.g.3.3.7.b.C.j.j.l.k.S.S.C.C./.C.m.Z.m.n.S.C.k.n.g.n.Z.d.y.3.3.b.n.d.d.d.d.d.g.j.b.G D S S t.k ",
"6X^ E v c G D 1.s.5.d.b.b.d.b.9.b.g.6.3.i.g.n.s.s.g.g.C.C.k.k.Z.n.g.m.k.k.C.j.d.d.3.g.n.d.u.3.7.b.b.g.g.g.b.b.8.1.8.G D H j m z ",
"6XE.=.P ) F K >.>.G g.j.9.3.j.j.b.g.d.d.3.7.7.3.7.g.d.g.j.s.g.n.f.u.j.j.g.j.d.d.7.3.7.7.s.3.7.7.j.b.b.d.s.g.b.1.D ,.K G Z E X.Y.",
"6X6X2XE.` Z t.e.G D 8.6.>.>.6.g.b.7.g.b.3.7.7.7.3.g.j.s.s.u.j.k.s.u.d.u.u.d.d.g.7.3.7.7.3.7.b.d.b.g.9.6.>.1.f.>.G K t.>.A %.XX6X",
"6X6X6X5XI b K e.D G 1.1.>.1.s.8.b.g.b.b.9.d.g.7.7.d.b.7.3.s.k.m.d.3.3.3.3.u.g.9.7.7.d.g.3.b.b.b.b.g.1.6.1.>.1.>.D G y.F n X.6X6X",
"6X6X6X2X! h S G D 1.d.8.1.j.s.8.b.g.b.b.g.7.7.d.d.7.d.7.3.3.b.m.d.3.6.3.3.3.d.d.d.g.7.7.7.b.b.b.b.b.>.g.s.1.g.8.K D K b 0 %.5X6X",
"6X6X6X2X/ A G K K 6.g.1.1.q.d.5.7.b.b.b.g.g.g.g.b.7.7.3.3.3.d.g.d.g.b.3.3.7.7.7.b.b.g.g.9.b.b.b.g.s.1.q.9.>.6.g.>.K G F m *.5X6X",
"6X6X5X@Xh H F L G 1.<.D >.6.f.,.3.b.b.b.g.b.b.b.b.b.d.d.b.d.3.3.d.b.b.1.1.d.d.g.b.g.b.b.g.9.b.n.7.,.1.d.1.G >.1.] K L Z F I <X6X",
"6X6X>X#.v v G G S D G G D >.s.8.5.g.b.d.6.g.j.6.9.n.d.1.g.g.d.d.b.b.s.>.<.6.s.g.n.6.9.j.7.3.g.n.3.1.6.1.G D G D D H t.F j m Y.6X",
"6X6X>X^ ' E S N H G G K D >.f.d.1.s.8.5.9.9.1.1.6.d.5.>.5.6.u.d.g.6.1.>.1.>.<.8.d.u.,.8.9.8.6.d.>.5.j.8.K G G K G N B V Q ` P.6X",
"6X6X2XoX~.-.h b D e.K G K <.d.1.G >.>.>.s.1.>.6.6.1.>.1.>.K >.1.1.3.f.8.1.<.1.>.6.9.1.<.6.8.>.<.G >.6.6.>.K D L L B k T ~.~.@X6X",
"6X6X6X6X@X;.N G e.e.G e.e.,.,.G D G 1.1.>.>.3.j.5.G <.9.1.D ] 6.1.1.8.1.>.8.s.G >.9.9.>.K >.1.1.G D G ,.e.e.K L t.K D E Y.5X6X6X",
"6X6X6X6X~.E e.C D G G y.y.y.e.D D G 8.s.D G >.1.>.D 1.9.>.D >.s.f.1.>.G G 1.s.>.D ,.1.>.K ] 6.1.G D D y.y.y.e.G K N L D ! 2X6X6X",
"6X6X6X3X~.P n v S e.e.e.y.y.K K G G ] >.D D G G D D G >.G D G 1.g.8.K G D G >.G D D K D D G K G D K G L y.y.e.e.K N x z U 2X6X6X",
"6X6X6X6X@XP.=.W D y.y.e.e.K L e.L K e.e.D D G K K D D G e.G D e.s.u.G G K K S D K K K D D D K K D L y.K L e.e.y.t.b *.=.Y.5X6X6X",
"6X6X6X6X2X2X,X*.Z y.G e.K K y.y.L e.y.y.D D e.y.e.G D K e.e.K e.y.u.G e.y.t.G D L L L K D K e.L G L y.t.K L K e.e.n >X2X2X6X6X6X",
"6X6X6X6X6X6X5XoXW b k y.,.L y.L K y.e.e.K K e.i.t.G G e.y.y.e.e.y.y.e.t.i.y.e.D G y.y.e.G K e.e.D G e.e.L y.B b j *.2X6X6X6X6X6X",
"6X6X6X6X6X6X6X2X#.P q G t.L e.G K L L K e.L e.e.e.D e.y.i.e.e.G t.y.e.e.y.i.e.e.G e.e.e.e.L L K G K K e.>.t.m P q E.5X6X6X6X6X6X",
"6X6X6X6X5X5X5XXX&...{ j ,.D N e.L K B N i.e.L L e.K K e.i.e.G e.K e.G G e.e.t.e.e.e.G e.y.,.B H K e.K N e.F I { ..U.2X6X6X6X6X6X",
"6X6X6X6X7X5X>XI.&.$.O.I B V 9 G y.G h h i.e.H B G t.e.e.D B G e.K K K D G G e.t.y.e.N D y.L h b e.e.b h Z n ~ +.+.D.|.<X6X6X6X6X",
"6X6X6X6X6X5X.XD.$.$.$.{ 0 ( r.r.F G l U N b 8 b e.y.e.v 8 k >.y.S N e.N N K e.e.y.y.j h B x y n K A ^ ! l y O.$.+.D.K.>X6X6X6X6X",
"6X6X6X6X6X6X,XW.D.$.$.O.{ ..+. .U T  .{ 0 q 4 8 e.i.B 5 > 6 D y.b b e.b v e.e.b N b = w l q [ ! n ! O.O.{ } $.$.+.F..X5X6X6X6X6X",
"6X6X6X6X6X6X5X<XK.$.$.+.+.+.$.+.O...+.O.| d * 6 Z e.k % < = N K h M K v 9 V F 7 5 5 & ; a ..O.O...O.+.D.+.+.+.+.D.|.5X5X6X6X6X6X",
"6X6X6X6X6X5X5X>XH.$.$.&.+.&.$.&.&.&.+.O.p - $ < 7 M = , < = b b 5 > M 8 % 6 8 % O < # # ; } +.D.$.$.$.+.+.+.D.D.+.W.8X6X6X6X6X6X",
"6X6X6X6X6X6X5X|.D.+.+.D.+.+.+.D.D.D.o.o.p : X X X + : ; , % 6 6 < $ & % * < ; X     X X t } O.D.$.$.$.$.$.$.$.$.$.F.5X6X6X6X6X6X",
"6X6X6X6X6X6X5XW.+.D.+.D.+.D.+.+.o.D.D.D.o.f u u t X O 1 $ o + < 1 1 $ . O 2 1 o : i u p } o.D.D.$.$.$.$.$.$.$.$.$.+.2X6X6X6X6X6X",
"6X6X6X6X6X6X5X&XG.+.D.+.+.D.D.+.D.D.D.o.D.o.o.} r $ 1 $ @   o 1 , 1 $   o 2 1 $ : u o.o.D.D.D.o.$.$.$.$.$.$.$.+.$.W.5X6X6X6X6X6X",
"6X6X6X6X6X6X6X6X>XK.F.+.+.+.D.L.D.o.D.D.D.D.D.| e , $ . X e e o # O   e e X @ @ @ i o.D.O.D.+.D.$.$.$.$.$.+.D.F. X<X5X6X6X6X6X6X",
"6X6X6X6X6X6X6X6X5X&X|.D.D.D.+.+.D.o.D.D.D.D.+.o.p ; : r g | r X # O X u | p t : r } D.D.D.+.+.+.$.$.$.$.$.$.H..X<X6X6X6X6X6X6X6X",
"6X6X6X6X6X6X6X6X5X<XH.D.+.+.+.D.D.o.D.O.o.o.D.D.O.o.o.o.+.+.| e @ - i o.D.o.o.} D.o.D.o.+.+.D.+.$.$.$.$.$.$.$. X8X6X6X6X6X6X6X6X",
"6X6X6X6X6X6X6X6X6X5XK.D.+.+.+.D.D.D.D.o.D.D.o.D.D.+.+.+.D.D.+.o.o.o.+.+.o.D.D.D.D.o.D.D.D.D.D.D.$.$.$.$.$.$.F..X5X6X6X6X6X6X6X6X",
"6X6X6X6X6X6X6X6X5X5X<XK.D.D.+.+.o.D.D.D.D.O.D.D.+.D.D.+.+.+.+.+.+.$.$.$.D.D.o.o.D.D.D.o.o.D.+.o.$.$.$.$.$.G..X2X6X6X6X6X6X6X6X6X",
"6X6X6X6X6X6X6X6X6X6X5X<X|.K.D.+.D.D.+.+.+.D.o.D.+.D.D.+.D.+.+.+.$.$.$.$.$.$.$.$.D.+.+.+.D.+.+.D.+.+.D.F.K. X5X6X6X6X6X6X6X6X6X6X",
"6X6X6X6X6X6X6X6X6X6X6X6X5X&XK.D.o.D.+.D.+.+.D.D.+.+.+.+.+.+.D.D.$.$.$.$.$.$.$.$.+.D.D.+.D.+.D.D.D.D.D. X5X5X6X6X6X6X6X6X6X6X6X6X",
"6X6X6X6X6X6X6X6X6X6X6X6X5X7XOXD.D.D.D.D.D.o.D.o.D.+.+.D.+.D.D.+.$.$.$.$.$.$.$.$.+.+.D.+.o.D.D.D.+.D.D.>X6X6X6X6X6X6X6X6X6X6X6X6X",
"6X6X6X6X6X6X6X6X6X6X6X6X6X5X<XK.D.G.XX X+.D.D.D.+.D.+.D.+.+.+.+.$.$.$.$.$.$.$.$.D.+.+.D.D.F..X|.D.D. X5X6X6X6X6X6X6X6X6X6X6X6X6X",
"6X6X6X6X6X6X6X6X6X6X6X6X6X6X6X5X5X5X5X5X.XG.D.D.+.D.F.D.+.D.+.D.+.D.+.+.$.+.D.F.D.D.D.D.K.>X5X5X5X5X5X5X6X6X6X6X6X6X6X6X6X6X6X6X",
"6X6X6X6X6X6X6X6X6X6X6X6X6X6X6X6X6X6X5X6X5X XD.D.G.W. XF.D.+.+.D.G.G.D.D.$.D.W. XK.G.D.H.>X6X6X6X5X5X6X6X6X6X6X6X6X6X6X6X6X6X6X6X",
"6X6X6X6X6X6X6X6X6X6X6X6X6X6X6X6X6X6X6X6X5X5XXX.X5X5X5XXXK.D.F.|.<X&XK.D.D.W.<X5X6X&X X>X5X6X6X6X6X6X6X6X6X6X6X6X6X6X6X6X6X6X6X6X",
"6X6X6X6X6X6X6X6X6X6X6X6X6X6X6X6X6X6X6X5X5X5X5X5X5X6X6X5XXXQ..X<X5X5X&X|. X,X6X6X6X6X6X6X6X6X6X6X6X6X6X6X6X6X6X6X6X6X6X6X6X6X6X6X"
};
